<mxfile host="app.diagrams.net" agent="Mozilla/5.0 (Windows NT 10.0; Win64; x64) AppleWebKit/537.36 (KHTML, like Gecko) Chrome/133.0.0.0 Safari/537.36" version="26.0.14">
  <diagram id="C5RBs43oDa-KdzZeNtuy" name="Page-1">
    <mxGraphModel dx="2954" dy="1098" grid="1" gridSize="10" guides="1" tooltips="1" connect="1" arrows="1" fold="1" page="1" pageScale="1" pageWidth="827" pageHeight="1169" math="0" shadow="0">
      <root>
        <mxCell id="WIyWlLk6GJQsqaUBKTNV-0" />
        <mxCell id="WIyWlLk6GJQsqaUBKTNV-1" parent="WIyWlLk6GJQsqaUBKTNV-0" />
        <mxCell id="7fKR6DzYwxGj0Lj0Nkhz-16" style="edgeStyle=orthogonalEdgeStyle;rounded=0;orthogonalLoop=1;jettySize=auto;html=1;exitX=0.25;exitY=1;exitDx=0;exitDy=0;entryX=0.5;entryY=0;entryDx=0;entryDy=0;" edge="1" parent="WIyWlLk6GJQsqaUBKTNV-1" source="WIyWlLk6GJQsqaUBKTNV-3" target="7fKR6DzYwxGj0Lj0Nkhz-1">
          <mxGeometry relative="1" as="geometry" />
        </mxCell>
        <mxCell id="7fKR6DzYwxGj0Lj0Nkhz-17" style="edgeStyle=orthogonalEdgeStyle;rounded=0;orthogonalLoop=1;jettySize=auto;html=1;exitX=0.5;exitY=1;exitDx=0;exitDy=0;entryX=0.5;entryY=0;entryDx=0;entryDy=0;" edge="1" parent="WIyWlLk6GJQsqaUBKTNV-1" source="WIyWlLk6GJQsqaUBKTNV-3" target="7fKR6DzYwxGj0Lj0Nkhz-0">
          <mxGeometry relative="1" as="geometry" />
        </mxCell>
        <mxCell id="7fKR6DzYwxGj0Lj0Nkhz-18" style="edgeStyle=orthogonalEdgeStyle;rounded=0;orthogonalLoop=1;jettySize=auto;html=1;exitX=0.5;exitY=1;exitDx=0;exitDy=0;entryX=0.5;entryY=0;entryDx=0;entryDy=0;" edge="1" parent="WIyWlLk6GJQsqaUBKTNV-1" source="WIyWlLk6GJQsqaUBKTNV-3" target="7fKR6DzYwxGj0Lj0Nkhz-2">
          <mxGeometry relative="1" as="geometry" />
        </mxCell>
        <mxCell id="7fKR6DzYwxGj0Lj0Nkhz-23" style="edgeStyle=orthogonalEdgeStyle;rounded=0;orthogonalLoop=1;jettySize=auto;html=1;exitX=0.75;exitY=1;exitDx=0;exitDy=0;entryX=0.25;entryY=0;entryDx=0;entryDy=0;" edge="1" parent="WIyWlLk6GJQsqaUBKTNV-1" source="WIyWlLk6GJQsqaUBKTNV-3" target="7fKR6DzYwxGj0Lj0Nkhz-3">
          <mxGeometry relative="1" as="geometry" />
        </mxCell>
        <mxCell id="WIyWlLk6GJQsqaUBKTNV-3" value="Needs Analysis &amp;amp; Monitoring" style="rounded=1;whiteSpace=wrap;html=1;fontSize=12;glass=0;strokeWidth=1;shadow=0;fillColor=#dae8fc;strokeColor=#6c8ebf;" parent="WIyWlLk6GJQsqaUBKTNV-1" vertex="1">
          <mxGeometry x="320" y="40" width="200" height="40" as="geometry" />
        </mxCell>
        <mxCell id="7fKR6DzYwxGj0Lj0Nkhz-27" style="edgeStyle=orthogonalEdgeStyle;rounded=0;orthogonalLoop=1;jettySize=auto;html=1;exitX=0.5;exitY=1;exitDx=0;exitDy=0;" edge="1" parent="WIyWlLk6GJQsqaUBKTNV-1" source="7fKR6DzYwxGj0Lj0Nkhz-0" target="7fKR6DzYwxGj0Lj0Nkhz-24">
          <mxGeometry relative="1" as="geometry" />
        </mxCell>
        <mxCell id="7fKR6DzYwxGj0Lj0Nkhz-0" value="Trigger: Quantitative Analysis" style="rounded=0;whiteSpace=wrap;html=1;" vertex="1" parent="WIyWlLk6GJQsqaUBKTNV-1">
          <mxGeometry x="240" y="240" width="160" height="80" as="geometry" />
        </mxCell>
        <mxCell id="7fKR6DzYwxGj0Lj0Nkhz-28" style="edgeStyle=orthogonalEdgeStyle;rounded=0;orthogonalLoop=1;jettySize=auto;html=1;exitX=0.5;exitY=1;exitDx=0;exitDy=0;" edge="1" parent="WIyWlLk6GJQsqaUBKTNV-1" source="7fKR6DzYwxGj0Lj0Nkhz-1" target="7fKR6DzYwxGj0Lj0Nkhz-24">
          <mxGeometry relative="1" as="geometry" />
        </mxCell>
        <mxCell id="7fKR6DzYwxGj0Lj0Nkhz-1" value="Trigger: Feedback from HM/CLM" style="rounded=0;whiteSpace=wrap;html=1;" vertex="1" parent="WIyWlLk6GJQsqaUBKTNV-1">
          <mxGeometry x="40" y="240" width="160" height="80" as="geometry" />
        </mxCell>
        <mxCell id="7fKR6DzYwxGj0Lj0Nkhz-26" style="edgeStyle=orthogonalEdgeStyle;rounded=0;orthogonalLoop=1;jettySize=auto;html=1;exitX=0.5;exitY=1;exitDx=0;exitDy=0;" edge="1" parent="WIyWlLk6GJQsqaUBKTNV-1" source="7fKR6DzYwxGj0Lj0Nkhz-2">
          <mxGeometry relative="1" as="geometry">
            <mxPoint x="720" y="400" as="targetPoint" />
          </mxGeometry>
        </mxCell>
        <mxCell id="7fKR6DzYwxGj0Lj0Nkhz-2" value="Trigger: Contract Expiry Approaching" style="rounded=0;whiteSpace=wrap;html=1;" vertex="1" parent="WIyWlLk6GJQsqaUBKTNV-1">
          <mxGeometry x="440" y="240" width="160" height="80" as="geometry" />
        </mxCell>
        <mxCell id="7fKR6DzYwxGj0Lj0Nkhz-25" style="edgeStyle=orthogonalEdgeStyle;rounded=0;orthogonalLoop=1;jettySize=auto;html=1;exitX=0.5;exitY=1;exitDx=0;exitDy=0;entryX=0.5;entryY=0;entryDx=0;entryDy=0;" edge="1" parent="WIyWlLk6GJQsqaUBKTNV-1" source="7fKR6DzYwxGj0Lj0Nkhz-3" target="7fKR6DzYwxGj0Lj0Nkhz-24">
          <mxGeometry relative="1" as="geometry" />
        </mxCell>
        <mxCell id="7fKR6DzYwxGj0Lj0Nkhz-3" value="Trigger: Needs Analysis" style="rounded=0;whiteSpace=wrap;html=1;" vertex="1" parent="WIyWlLk6GJQsqaUBKTNV-1">
          <mxGeometry x="640" y="240" width="160" height="80" as="geometry" />
        </mxCell>
        <mxCell id="7fKR6DzYwxGj0Lj0Nkhz-11" style="edgeStyle=orthogonalEdgeStyle;rounded=0;orthogonalLoop=1;jettySize=auto;html=1;exitX=0.5;exitY=1;exitDx=0;exitDy=0;entryX=0.5;entryY=0;entryDx=0;entryDy=0;" edge="1" parent="WIyWlLk6GJQsqaUBKTNV-1" source="7fKR6DzYwxGj0Lj0Nkhz-4">
          <mxGeometry relative="1" as="geometry">
            <mxPoint x="1161" y="120" as="targetPoint" />
          </mxGeometry>
        </mxCell>
        <mxCell id="7fKR6DzYwxGj0Lj0Nkhz-12" style="edgeStyle=orthogonalEdgeStyle;rounded=0;orthogonalLoop=1;jettySize=auto;html=1;exitX=0.25;exitY=1;exitDx=0;exitDy=0;entryX=0.5;entryY=0;entryDx=0;entryDy=0;" edge="1" parent="WIyWlLk6GJQsqaUBKTNV-1" source="7fKR6DzYwxGj0Lj0Nkhz-4">
          <mxGeometry relative="1" as="geometry">
            <mxPoint x="960" y="120" as="targetPoint" />
          </mxGeometry>
        </mxCell>
        <mxCell id="7fKR6DzYwxGj0Lj0Nkhz-13" style="edgeStyle=orthogonalEdgeStyle;rounded=0;orthogonalLoop=1;jettySize=auto;html=1;exitX=0.75;exitY=1;exitDx=0;exitDy=0;entryX=0.5;entryY=0;entryDx=0;entryDy=0;" edge="1" parent="WIyWlLk6GJQsqaUBKTNV-1" source="7fKR6DzYwxGj0Lj0Nkhz-4">
          <mxGeometry relative="1" as="geometry">
            <mxPoint x="1360" y="120" as="targetPoint" />
          </mxGeometry>
        </mxCell>
        <mxCell id="7fKR6DzYwxGj0Lj0Nkhz-4" value="Supplier Relationship Management" style="rounded=1;whiteSpace=wrap;html=1;fontSize=12;glass=0;strokeWidth=1;shadow=0;fillColor=#dae8fc;strokeColor=#6c8ebf;" vertex="1" parent="WIyWlLk6GJQsqaUBKTNV-1">
          <mxGeometry x="1061" y="40" width="200" height="40" as="geometry" />
        </mxCell>
        <mxCell id="7fKR6DzYwxGj0Lj0Nkhz-62" style="edgeStyle=orthogonalEdgeStyle;rounded=0;orthogonalLoop=1;jettySize=auto;html=1;exitX=1;exitY=0.5;exitDx=0;exitDy=0;entryX=0;entryY=0.5;entryDx=0;entryDy=0;fillColor=#d5e8d4;strokeColor=#82b366;" edge="1" parent="WIyWlLk6GJQsqaUBKTNV-1" source="7fKR6DzYwxGj0Lj0Nkhz-24" target="7fKR6DzYwxGj0Lj0Nkhz-38">
          <mxGeometry relative="1" as="geometry" />
        </mxCell>
        <mxCell id="7fKR6DzYwxGj0Lj0Nkhz-70" style="edgeStyle=orthogonalEdgeStyle;rounded=0;orthogonalLoop=1;jettySize=auto;html=1;exitX=0;exitY=0.5;exitDx=0;exitDy=0;fillColor=#f8cecc;strokeColor=#b85450;" edge="1" parent="WIyWlLk6GJQsqaUBKTNV-1" source="7fKR6DzYwxGj0Lj0Nkhz-24" target="7fKR6DzYwxGj0Lj0Nkhz-29">
          <mxGeometry relative="1" as="geometry" />
        </mxCell>
        <mxCell id="7fKR6DzYwxGj0Lj0Nkhz-24" value="Is a Source to Contract Process Needed?" style="rhombus;whiteSpace=wrap;html=1;fillColor=#fff2cc;strokeColor=#d6b656;" vertex="1" parent="WIyWlLk6GJQsqaUBKTNV-1">
          <mxGeometry x="640" y="400" width="160" height="120" as="geometry" />
        </mxCell>
        <mxCell id="7fKR6DzYwxGj0Lj0Nkhz-29" value="End Process" style="rounded=1;whiteSpace=wrap;html=1;fillColor=#f8cecc;strokeColor=#b85450;" vertex="1" parent="WIyWlLk6GJQsqaUBKTNV-1">
          <mxGeometry x="320" y="930" width="200" height="120" as="geometry" />
        </mxCell>
        <mxCell id="7fKR6DzYwxGj0Lj0Nkhz-34" style="edgeStyle=orthogonalEdgeStyle;rounded=0;orthogonalLoop=1;jettySize=auto;html=1;exitX=0.5;exitY=1;exitDx=0;exitDy=0;entryX=0.75;entryY=0;entryDx=0;entryDy=0;" edge="1" parent="WIyWlLk6GJQsqaUBKTNV-1" source="7fKR6DzYwxGj0Lj0Nkhz-31" target="7fKR6DzYwxGj0Lj0Nkhz-3">
          <mxGeometry relative="1" as="geometry" />
        </mxCell>
        <mxCell id="7fKR6DzYwxGj0Lj0Nkhz-31" value="Needs Analysis" style="rounded=1;whiteSpace=wrap;html=1;fillColor=#dae8fc;strokeColor=#6c8ebf;" vertex="1" parent="WIyWlLk6GJQsqaUBKTNV-1">
          <mxGeometry x="880" y="120" width="160" height="60" as="geometry" />
        </mxCell>
        <mxCell id="7fKR6DzYwxGj0Lj0Nkhz-35" style="edgeStyle=orthogonalEdgeStyle;rounded=0;orthogonalLoop=1;jettySize=auto;html=1;exitX=0.5;exitY=1;exitDx=0;exitDy=0;entryX=0.75;entryY=0;entryDx=0;entryDy=0;" edge="1" parent="WIyWlLk6GJQsqaUBKTNV-1" source="7fKR6DzYwxGj0Lj0Nkhz-32" target="7fKR6DzYwxGj0Lj0Nkhz-3">
          <mxGeometry relative="1" as="geometry" />
        </mxCell>
        <mxCell id="7fKR6DzYwxGj0Lj0Nkhz-32" value="KPI Tracking &amp;amp; Spend Analysis" style="rounded=1;whiteSpace=wrap;html=1;fillColor=#dae8fc;strokeColor=#6c8ebf;" vertex="1" parent="WIyWlLk6GJQsqaUBKTNV-1">
          <mxGeometry x="1081" y="120" width="160" height="60" as="geometry" />
        </mxCell>
        <mxCell id="7fKR6DzYwxGj0Lj0Nkhz-36" style="edgeStyle=orthogonalEdgeStyle;rounded=0;orthogonalLoop=1;jettySize=auto;html=1;exitX=0.5;exitY=1;exitDx=0;exitDy=0;entryX=0.75;entryY=0;entryDx=0;entryDy=0;" edge="1" parent="WIyWlLk6GJQsqaUBKTNV-1" source="7fKR6DzYwxGj0Lj0Nkhz-33" target="7fKR6DzYwxGj0Lj0Nkhz-3">
          <mxGeometry relative="1" as="geometry" />
        </mxCell>
        <mxCell id="7fKR6DzYwxGj0Lj0Nkhz-33" value="Qualitative Review Meeting" style="rounded=1;whiteSpace=wrap;html=1;fillColor=#dae8fc;strokeColor=#6c8ebf;" vertex="1" parent="WIyWlLk6GJQsqaUBKTNV-1">
          <mxGeometry x="1280" y="120" width="160" height="60" as="geometry" />
        </mxCell>
        <mxCell id="7fKR6DzYwxGj0Lj0Nkhz-52" style="edgeStyle=orthogonalEdgeStyle;rounded=0;orthogonalLoop=1;jettySize=auto;html=1;exitX=0.5;exitY=1;exitDx=0;exitDy=0;entryX=0.5;entryY=0;entryDx=0;entryDy=0;fillColor=#d5e8d4;strokeColor=#82b366;" edge="1" parent="WIyWlLk6GJQsqaUBKTNV-1" source="7fKR6DzYwxGj0Lj0Nkhz-38" target="7fKR6DzYwxGj0Lj0Nkhz-48">
          <mxGeometry relative="1" as="geometry" />
        </mxCell>
        <mxCell id="7fKR6DzYwxGj0Lj0Nkhz-38" value="Is Category Review &lt;br&gt;Required?" style="rhombus;whiteSpace=wrap;html=1;fillColor=#fff2cc;strokeColor=#d6b656;" vertex="1" parent="WIyWlLk6GJQsqaUBKTNV-1">
          <mxGeometry x="921" y="280" width="160" height="120" as="geometry" />
        </mxCell>
        <mxCell id="7fKR6DzYwxGj0Lj0Nkhz-61" style="edgeStyle=orthogonalEdgeStyle;rounded=0;orthogonalLoop=1;jettySize=auto;html=1;exitX=1;exitY=0.5;exitDx=0;exitDy=0;entryX=1;entryY=0.5;entryDx=0;entryDy=0;" edge="1" parent="WIyWlLk6GJQsqaUBKTNV-1" source="7fKR6DzYwxGj0Lj0Nkhz-40" target="7fKR6DzYwxGj0Lj0Nkhz-58">
          <mxGeometry relative="1" as="geometry" />
        </mxCell>
        <mxCell id="7fKR6DzYwxGj0Lj0Nkhz-40" value="Use Existing Vendors" style="rounded=0;whiteSpace=wrap;html=1;" vertex="1" parent="WIyWlLk6GJQsqaUBKTNV-1">
          <mxGeometry x="1200" y="310" width="160" height="60" as="geometry" />
        </mxCell>
        <mxCell id="7fKR6DzYwxGj0Lj0Nkhz-41" style="edgeStyle=orthogonalEdgeStyle;rounded=0;orthogonalLoop=1;jettySize=auto;html=1;exitX=1;exitY=0.5;exitDx=0;exitDy=0;entryX=0;entryY=0.5;entryDx=0;entryDy=0;fillColor=#f8cecc;strokeColor=#b85450;" edge="1" parent="WIyWlLk6GJQsqaUBKTNV-1" source="7fKR6DzYwxGj0Lj0Nkhz-38" target="7fKR6DzYwxGj0Lj0Nkhz-40">
          <mxGeometry relative="1" as="geometry" />
        </mxCell>
        <mxCell id="7fKR6DzYwxGj0Lj0Nkhz-59" style="edgeStyle=orthogonalEdgeStyle;rounded=0;orthogonalLoop=1;jettySize=auto;html=1;exitX=1;exitY=0.5;exitDx=0;exitDy=0;entryX=0;entryY=0.5;entryDx=0;entryDy=0;fillColor=#f8cecc;strokeColor=#b85450;" edge="1" parent="WIyWlLk6GJQsqaUBKTNV-1" source="7fKR6DzYwxGj0Lj0Nkhz-42" target="7fKR6DzYwxGj0Lj0Nkhz-58">
          <mxGeometry relative="1" as="geometry" />
        </mxCell>
        <mxCell id="7fKR6DzYwxGj0Lj0Nkhz-76" style="edgeStyle=orthogonalEdgeStyle;rounded=0;orthogonalLoop=1;jettySize=auto;html=1;exitX=0;exitY=0.5;exitDx=0;exitDy=0;entryX=1;entryY=0.5;entryDx=0;entryDy=0;fillColor=#d5e8d4;strokeColor=#82b366;" edge="1" parent="WIyWlLk6GJQsqaUBKTNV-1" source="7fKR6DzYwxGj0Lj0Nkhz-42" target="7fKR6DzYwxGj0Lj0Nkhz-75">
          <mxGeometry relative="1" as="geometry" />
        </mxCell>
        <mxCell id="7fKR6DzYwxGj0Lj0Nkhz-42" value="Does Tender Fail?" style="rhombus;whiteSpace=wrap;html=1;fillColor=#fff2cc;strokeColor=#d6b656;" vertex="1" parent="WIyWlLk6GJQsqaUBKTNV-1">
          <mxGeometry x="921" y="800" width="160" height="120" as="geometry" />
        </mxCell>
        <mxCell id="7fKR6DzYwxGj0Lj0Nkhz-55" style="edgeStyle=orthogonalEdgeStyle;rounded=0;orthogonalLoop=1;jettySize=auto;html=1;exitX=0.5;exitY=1;exitDx=0;exitDy=0;entryX=0.5;entryY=0;entryDx=0;entryDy=0;" edge="1" parent="WIyWlLk6GJQsqaUBKTNV-1" source="7fKR6DzYwxGj0Lj0Nkhz-47" target="7fKR6DzYwxGj0Lj0Nkhz-49">
          <mxGeometry relative="1" as="geometry" />
        </mxCell>
        <mxCell id="7fKR6DzYwxGj0Lj0Nkhz-47" value="Negotiate Contract" style="rounded=1;whiteSpace=wrap;html=1;fillColor=#dae8fc;strokeColor=#6c8ebf;" vertex="1" parent="WIyWlLk6GJQsqaUBKTNV-1">
          <mxGeometry x="921" y="540" width="160" height="60" as="geometry" />
        </mxCell>
        <mxCell id="7fKR6DzYwxGj0Lj0Nkhz-53" style="edgeStyle=orthogonalEdgeStyle;rounded=0;orthogonalLoop=1;jettySize=auto;html=1;exitX=0.5;exitY=1;exitDx=0;exitDy=0;entryX=0.5;entryY=0;entryDx=0;entryDy=0;" edge="1" parent="WIyWlLk6GJQsqaUBKTNV-1" source="7fKR6DzYwxGj0Lj0Nkhz-48" target="7fKR6DzYwxGj0Lj0Nkhz-47">
          <mxGeometry relative="1" as="geometry" />
        </mxCell>
        <mxCell id="7fKR6DzYwxGj0Lj0Nkhz-48" value="Develop Sourcing Strategy" style="rounded=1;whiteSpace=wrap;html=1;fillColor=#dae8fc;strokeColor=#6c8ebf;" vertex="1" parent="WIyWlLk6GJQsqaUBKTNV-1">
          <mxGeometry x="921" y="435" width="160" height="60" as="geometry" />
        </mxCell>
        <mxCell id="7fKR6DzYwxGj0Lj0Nkhz-50" style="edgeStyle=orthogonalEdgeStyle;rounded=0;orthogonalLoop=1;jettySize=auto;html=1;exitX=0.5;exitY=1;exitDx=0;exitDy=0;entryX=0.5;entryY=0;entryDx=0;entryDy=0;fillColor=#d5e8d4;strokeColor=#82b366;" edge="1" parent="WIyWlLk6GJQsqaUBKTNV-1" source="7fKR6DzYwxGj0Lj0Nkhz-49" target="7fKR6DzYwxGj0Lj0Nkhz-42">
          <mxGeometry relative="1" as="geometry" />
        </mxCell>
        <mxCell id="7fKR6DzYwxGj0Lj0Nkhz-57" style="edgeStyle=orthogonalEdgeStyle;rounded=0;orthogonalLoop=1;jettySize=auto;html=1;exitX=1;exitY=0.5;exitDx=0;exitDy=0;entryX=0;entryY=0.5;entryDx=0;entryDy=0;fillColor=#f8cecc;strokeColor=#b85450;" edge="1" parent="WIyWlLk6GJQsqaUBKTNV-1" source="7fKR6DzYwxGj0Lj0Nkhz-49" target="7fKR6DzYwxGj0Lj0Nkhz-56">
          <mxGeometry relative="1" as="geometry" />
        </mxCell>
        <mxCell id="7fKR6DzYwxGj0Lj0Nkhz-49" value="Is there an MSA?" style="rhombus;whiteSpace=wrap;html=1;fillColor=#fff2cc;strokeColor=#d6b656;" vertex="1" parent="WIyWlLk6GJQsqaUBKTNV-1">
          <mxGeometry x="921" y="640" width="160" height="120" as="geometry" />
        </mxCell>
        <mxCell id="7fKR6DzYwxGj0Lj0Nkhz-60" style="edgeStyle=orthogonalEdgeStyle;rounded=0;orthogonalLoop=1;jettySize=auto;html=1;exitX=0.5;exitY=1;exitDx=0;exitDy=0;entryX=0.5;entryY=0;entryDx=0;entryDy=0;" edge="1" parent="WIyWlLk6GJQsqaUBKTNV-1" source="7fKR6DzYwxGj0Lj0Nkhz-56" target="7fKR6DzYwxGj0Lj0Nkhz-58">
          <mxGeometry relative="1" as="geometry" />
        </mxCell>
        <mxCell id="7fKR6DzYwxGj0Lj0Nkhz-56" value="Create MSA with Vendor" style="rounded=1;whiteSpace=wrap;html=1;fillColor=#dae8fc;strokeColor=#6c8ebf;" vertex="1" parent="WIyWlLk6GJQsqaUBKTNV-1">
          <mxGeometry x="1140" y="670" width="160" height="60" as="geometry" />
        </mxCell>
        <mxCell id="7fKR6DzYwxGj0Lj0Nkhz-67" style="edgeStyle=orthogonalEdgeStyle;rounded=0;orthogonalLoop=1;jettySize=auto;html=1;exitX=0.5;exitY=1;exitDx=0;exitDy=0;entryX=0.5;entryY=0;entryDx=0;entryDy=0;" edge="1" parent="WIyWlLk6GJQsqaUBKTNV-1" source="7fKR6DzYwxGj0Lj0Nkhz-58" target="7fKR6DzYwxGj0Lj0Nkhz-64">
          <mxGeometry relative="1" as="geometry">
            <Array as="points">
              <mxPoint x="1220" y="940" />
              <mxPoint x="1001" y="940" />
            </Array>
          </mxGeometry>
        </mxCell>
        <mxCell id="7fKR6DzYwxGj0Lj0Nkhz-68" style="edgeStyle=orthogonalEdgeStyle;rounded=0;orthogonalLoop=1;jettySize=auto;html=1;exitX=0.5;exitY=1;exitDx=0;exitDy=0;entryX=0.5;entryY=0;entryDx=0;entryDy=0;" edge="1" parent="WIyWlLk6GJQsqaUBKTNV-1" source="7fKR6DzYwxGj0Lj0Nkhz-58" target="7fKR6DzYwxGj0Lj0Nkhz-65">
          <mxGeometry relative="1" as="geometry" />
        </mxCell>
        <mxCell id="7fKR6DzYwxGj0Lj0Nkhz-69" style="edgeStyle=orthogonalEdgeStyle;rounded=0;orthogonalLoop=1;jettySize=auto;html=1;exitX=0.5;exitY=1;exitDx=0;exitDy=0;" edge="1" parent="WIyWlLk6GJQsqaUBKTNV-1" source="7fKR6DzYwxGj0Lj0Nkhz-58" target="7fKR6DzYwxGj0Lj0Nkhz-66">
          <mxGeometry relative="1" as="geometry">
            <Array as="points">
              <mxPoint x="1220" y="940" />
              <mxPoint x="1440" y="940" />
            </Array>
          </mxGeometry>
        </mxCell>
        <mxCell id="7fKR6DzYwxGj0Lj0Nkhz-58" value="Award Contract" style="rounded=0;whiteSpace=wrap;html=1;" vertex="1" parent="WIyWlLk6GJQsqaUBKTNV-1">
          <mxGeometry x="1140" y="830" width="160" height="60" as="geometry" />
        </mxCell>
        <mxCell id="7fKR6DzYwxGj0Lj0Nkhz-71" style="edgeStyle=orthogonalEdgeStyle;rounded=0;orthogonalLoop=1;jettySize=auto;html=1;exitX=0.5;exitY=1;exitDx=0;exitDy=0;entryX=0.5;entryY=1;entryDx=0;entryDy=0;" edge="1" parent="WIyWlLk6GJQsqaUBKTNV-1" source="7fKR6DzYwxGj0Lj0Nkhz-64" target="7fKR6DzYwxGj0Lj0Nkhz-29">
          <mxGeometry relative="1" as="geometry" />
        </mxCell>
        <mxCell id="7fKR6DzYwxGj0Lj0Nkhz-64" value="SF Onboarding" style="shape=parallelogram;perimeter=parallelogramPerimeter;whiteSpace=wrap;html=1;fixedSize=1;fillColor=#f8cecc;strokeColor=#b85450;" vertex="1" parent="WIyWlLk6GJQsqaUBKTNV-1">
          <mxGeometry x="911" y="960" width="180" height="60" as="geometry" />
        </mxCell>
        <mxCell id="7fKR6DzYwxGj0Lj0Nkhz-73" style="edgeStyle=orthogonalEdgeStyle;rounded=0;orthogonalLoop=1;jettySize=auto;html=1;exitX=0.5;exitY=1;exitDx=0;exitDy=0;entryX=0.5;entryY=1;entryDx=0;entryDy=0;" edge="1" parent="WIyWlLk6GJQsqaUBKTNV-1" source="7fKR6DzYwxGj0Lj0Nkhz-65" target="7fKR6DzYwxGj0Lj0Nkhz-29">
          <mxGeometry relative="1" as="geometry" />
        </mxCell>
        <mxCell id="7fKR6DzYwxGj0Lj0Nkhz-65" value="FieldGlass Vendor &lt;br&gt;Onboarding" style="shape=parallelogram;perimeter=parallelogramPerimeter;whiteSpace=wrap;html=1;fixedSize=1;fillColor=#f8cecc;strokeColor=#b85450;" vertex="1" parent="WIyWlLk6GJQsqaUBKTNV-1">
          <mxGeometry x="1130" y="960" width="180" height="60" as="geometry" />
        </mxCell>
        <mxCell id="7fKR6DzYwxGj0Lj0Nkhz-74" style="edgeStyle=orthogonalEdgeStyle;rounded=0;orthogonalLoop=1;jettySize=auto;html=1;exitX=0.5;exitY=1;exitDx=0;exitDy=0;entryX=0.5;entryY=1;entryDx=0;entryDy=0;" edge="1" parent="WIyWlLk6GJQsqaUBKTNV-1" source="7fKR6DzYwxGj0Lj0Nkhz-66" target="7fKR6DzYwxGj0Lj0Nkhz-29">
          <mxGeometry relative="1" as="geometry" />
        </mxCell>
        <mxCell id="7fKR6DzYwxGj0Lj0Nkhz-66" value="Ivalua Vendor&lt;br&gt;Onboarding" style="shape=parallelogram;perimeter=parallelogramPerimeter;whiteSpace=wrap;html=1;fixedSize=1;fillColor=#f8cecc;strokeColor=#b85450;" vertex="1" parent="WIyWlLk6GJQsqaUBKTNV-1">
          <mxGeometry x="1350" y="960" width="180" height="60" as="geometry" />
        </mxCell>
        <mxCell id="7fKR6DzYwxGj0Lj0Nkhz-78" style="edgeStyle=orthogonalEdgeStyle;rounded=0;orthogonalLoop=1;jettySize=auto;html=1;exitX=0;exitY=0.5;exitDx=0;exitDy=0;" edge="1" parent="WIyWlLk6GJQsqaUBKTNV-1" source="7fKR6DzYwxGj0Lj0Nkhz-75">
          <mxGeometry relative="1" as="geometry">
            <mxPoint x="860" y="460" as="targetPoint" />
          </mxGeometry>
        </mxCell>
        <mxCell id="7fKR6DzYwxGj0Lj0Nkhz-75" value="Retry or Use Existing&lt;br&gt;Vendor" style="rounded=0;whiteSpace=wrap;html=1;" vertex="1" parent="WIyWlLk6GJQsqaUBKTNV-1">
          <mxGeometry x="700" y="830" width="160" height="60" as="geometry" />
        </mxCell>
      </root>
    </mxGraphModel>
  </diagram>
</mxfile>
